<?xml version="1.0" encoding="UTF-8" standalone="no"?>
<!DOCTYPE svg PUBLIC "-//W3C//DTD SVG 1.1//EN" "http://www.w3.org/Graphics/SVG/1.1/DTD/svg11.dtd">
<svg version="1.1" xmlns="http://www.w3.org/2000/svg" xmlns:xlink="http://www.w3.org/1999/xlink" preserveAspectRatio="xMidYMid meet" viewBox="636 454.1875 64 64" width="64" height="64"><defs><path d="M636 454.19L700 454.19L700 518.19L636 518.19L636 454.19Z" id="c5xE9N6OX8"></path><path d="M659.14 459.48C656.7 461.24 654.63 463.85 653.5 466.6C652.06 470.1 651.8 473.87 652.75 477.51C653.06 478.65 653.61 480.11 654.08 480.96C654.17 481.13 654.51 481.79 654.84 482.44C657.41 487.61 659.04 491.92 659.73 495.41C659.91 496.33 660 497.09 660.06 498.13C660.14 499.51 660.27 500.57 660.41 500.99C660.81 502.19 661.43 502.87 662.39 503.17C662.65 503.25 662.97 503.25 668.77 503.25C674.57 503.25 674.9 503.25 675.16 503.17C675.8 502.97 676.29 502.59 676.67 502.01C676.87 501.69 677.11 501.15 677.2 500.79C677.27 500.5 677.49 498.4 677.49 497.97C677.49 497.78 677.52 497.33 677.56 496.98C678.01 493.11 680.04 487.58 683.3 481.31C684.34 479.33 684.92 477.47 685.22 475.25C685.32 474.46 685.34 472.02 685.25 471.28C684.75 467.33 683.18 464.04 680.5 461.31C677.19 457.94 672.71 456.18 667.95 456.39C664.79 456.53 661.78 457.59 659.14 459.48ZM675.33 459.58C679.67 461.76 682.67 465.8 683.48 470.61C683.82 472.62 683.72 474.96 683.22 476.97C682.87 478.37 682.47 479.35 681.5 481.19C678.69 486.59 676.67 492.01 676.06 495.81C675.93 496.6 675.87 497.22 675.82 498.09C675.77 498.99 675.62 500.38 675.53 500.63C675.44 500.91 675.28 501.2 675.13 501.34C674.87 501.59 674.87 501.59 672.16 501.59C671.99 501.59 671.15 501.59 669.64 501.59C669.64 500.76 669.64 500.3 669.64 500.21C669.64 499.46 669.63 498.34 669.62 497.73C669.61 497.13 669.59 495.72 669.57 494.61C669.55 492.6 669.51 491.33 669.4 489.63C669.35 488.7 669.39 488.13 669.53 487.98C669.56 487.95 669.76 487.83 669.96 487.73C670.51 487.42 671.63 486.67 672.13 486.26C672.38 486.07 672.92 485.56 673.33 485.14C675.5 482.92 676.87 480.77 677.23 479.03C677.35 478.47 677.31 477.72 677.14 477.28C676.85 476.51 676.31 475.99 675.46 475.66C673.57 474.91 671.81 476.05 670.44 478.92C669.91 480.03 669.37 481.51 668.93 483.09C668.82 483.49 668.72 483.8 668.7 483.77C668.68 483.74 668.65 483.62 668.64 483.52C668.47 482.57 668.18 481.52 667.85 480.74C666.81 478.24 665.57 476.91 664.17 476.79C663.16 476.71 662.18 477.41 661.7 478.56C660.93 480.41 661.29 482.77 662.63 484.67C663.02 485.22 663.85 486.05 664.39 486.45C665.48 487.24 666.83 488.01 667.37 488.15C667.6 488.21 667.62 488.22 667.64 488.38C667.68 488.63 667.8 490.69 667.86 492.05C667.9 493.03 667.99 498.95 668 501.03C668 501.07 668 501.25 668 501.59C666.46 501.59 665.6 501.59 665.43 501.59C662.54 501.59 662.62 501.6 662.32 501.23C661.93 500.76 661.86 500.34 661.66 497.32C661.39 493.54 659.48 488 656.12 481.34C654.91 478.92 654.62 478.2 654.26 476.71C653.95 475.42 653.89 474.87 653.89 473.16C653.88 471.91 653.9 471.53 653.97 471.07C654.23 469.34 654.64 468 655.36 466.51C657.21 462.68 660.6 459.8 664.64 458.62C666.32 458.14 668.22 457.94 669.9 458.08C671.88 458.24 673.61 458.72 675.33 459.58ZM675.65 478.2C675.72 479.38 674.58 481.36 672.52 483.61C671.76 484.43 671.22 484.92 670.52 485.39C670 485.73 669.97 485.75 670 485.63C670.12 485.07 670.57 483.38 670.77 482.75C671.7 479.68 672.74 477.78 673.79 477.25C674.05 477.11 674.12 477.1 674.42 477.12C674.69 477.14 674.81 477.17 675.05 477.3C675.47 477.53 675.62 477.75 675.65 478.2ZM666.97 483.42C667.18 484.37 667.48 486.29 667.42 486.35C667.34 486.43 665.58 485.31 664.99 484.8C664.1 484.03 663.47 483.06 663.14 481.92C662.91 481.15 662.92 479.99 663.16 479.34C663.44 478.59 663.89 478.31 664.39 478.57C665.33 479.05 666.47 481.19 666.97 483.42Z" id="bnvSwz48F"></path><path d="M661.58 505.27C661.58 505.84 661.89 506.32 662.41 506.57C662.43 506.58 662.52 506.62 662.68 506.7C662.53 506.77 662.45 506.8 662.43 506.81C662.07 506.98 661.9 507.14 661.73 507.49C661.53 507.91 661.52 508.34 661.7 508.73C661.88 509.11 662.35 509.53 662.61 509.53C662.74 509.53 662.68 509.61 662.5 509.66C662.23 509.74 661.82 510.13 661.69 510.43C661.53 510.79 661.54 511.25 661.7 511.59C661.86 511.95 662.06 512.16 662.38 512.33C662.4 512.34 662.49 512.38 662.65 512.46L668.74 512.46L674.82 512.46C674.97 512.4 675.05 512.36 675.07 512.35C675.4 512.2 675.75 511.81 675.86 511.49C676.1 510.78 675.73 509.96 675.05 509.68C674.85 509.6 674.78 509.53 674.91 509.53C675.01 509.53 675.33 509.33 675.49 509.18C675.58 509.1 675.71 508.91 675.79 508.76C676.15 508.03 675.8 507.13 675.04 506.79C674.78 506.68 674.78 506.67 674.92 506.65C675.14 506.6 675.5 506.33 675.68 506.08C675.87 505.79 675.94 505.54 675.92 505.16C675.89 504.63 675.61 504.21 675.11 503.94C675.1 503.94 675.02 503.89 674.87 503.82C671.25 503.81 669.23 503.81 668.83 503.81C663.96 503.8 662.76 503.81 662.6 503.86C661.97 504.06 661.57 504.61 661.58 505.27ZM673.8 506.54C673.78 506.88 673.66 507.08 673.42 507.2C673.27 507.26 672.81 507.27 668.72 507.27C668.42 507.27 666.91 507.27 664.2 507.27C664.1 507.21 664.05 507.17 664.04 507.16C663.8 507.01 663.65 506.67 663.69 506.4C663.72 506.16 663.93 505.88 664.16 505.79C664.27 505.73 665.18 505.73 668.74 505.72C669.03 505.72 670.52 505.72 673.18 505.72L673.39 505.82C673.68 506.07 673.82 506.31 673.8 506.54ZM671.58 509.5C671.74 509.88 671.5 510.38 671.1 510.5C670.96 510.55 670.04 510.56 667.7 510.56C664.67 510.56 664.48 510.55 664.29 510.47C663.81 510.25 663.67 509.64 664.03 509.24C664.28 508.96 664.23 508.97 667.75 508.97C670.78 508.96 670.98 508.97 671.16 509.05C671.38 509.16 671.48 509.26 671.58 509.5Z" id="cTgvPMW1n"></path><path d="M664.44 513.4C665.21 514.34 666.51 515.08 667.78 515.31C668.29 515.4 669.32 515.39 669.8 515.29C670.57 515.13 671.22 514.86 671.9 514.43C672.22 514.21 673.17 513.31 673.28 513.11C673.28 513.1 673.3 513.07 673.33 513.01C670.58 513.01 669.05 513.01 668.75 513.01C666.23 513.01 664.17 513.02 664.17 513.04C664.17 513.05 664.29 513.21 664.44 513.4Z" id="a2LEDRfbzg"></path></defs><g><g><g></g><g><g><use xlink:href="#bnvSwz48F" opacity="1" fill="#5d8cc0" fill-opacity="1"></use></g><g><use xlink:href="#cTgvPMW1n" opacity="1" fill="#e0562a" fill-opacity="1"></use></g><g><use xlink:href="#a2LEDRfbzg" opacity="1" fill="#5d8cc0" fill-opacity="1"></use></g></g></g></g></svg>